<mxfile host="app.diagrams.net" modified="2020-12-06T01:27:41.230Z" agent="5.0 (Macintosh; Intel Mac OS X 10_14_6) AppleWebKit/537.36 (KHTML, like Gecko) Chrome/86.0.4240.183 Safari/537.36 Edg/86.0.622.63" etag="IxSuF6UWx_NwRBHhw6vk" version="13.10.9" type="github" pages="2">
  <diagram id="K7YyzgM8BqWO4I0Dd4Y1" name="Page-1">
    <mxGraphModel dx="928" dy="656" grid="1" gridSize="10" guides="1" tooltips="1" connect="1" arrows="1" fold="1" page="1" pageScale="1" pageWidth="850" pageHeight="600" math="0" shadow="0">
      <root>
        <mxCell id="0" />
        <mxCell id="1" parent="0" />
        <mxCell id="hg4rMiHEVmjoYwZ0kQkk-41" style="edgeStyle=orthogonalEdgeStyle;rounded=0;orthogonalLoop=1;jettySize=auto;html=1;exitX=0.5;exitY=1;exitDx=0;exitDy=0;entryX=0.5;entryY=0;entryDx=0;entryDy=0;fontSize=20;" parent="1" source="hg4rMiHEVmjoYwZ0kQkk-1" target="hg4rMiHEVmjoYwZ0kQkk-34" edge="1">
          <mxGeometry relative="1" as="geometry" />
        </mxCell>
        <mxCell id="hg4rMiHEVmjoYwZ0kQkk-1" value="" style="rounded=0;whiteSpace=wrap;html=1;" parent="1" vertex="1">
          <mxGeometry x="110" y="120" width="70" height="40" as="geometry" />
        </mxCell>
        <mxCell id="hg4rMiHEVmjoYwZ0kQkk-55" style="edgeStyle=orthogonalEdgeStyle;rounded=0;orthogonalLoop=1;jettySize=auto;html=1;exitX=0.5;exitY=1;exitDx=0;exitDy=0;entryX=0.5;entryY=0;entryDx=0;entryDy=0;fontSize=20;" parent="1" source="hg4rMiHEVmjoYwZ0kQkk-30" target="hg4rMiHEVmjoYwZ0kQkk-49" edge="1">
          <mxGeometry relative="1" as="geometry" />
        </mxCell>
        <mxCell id="hg4rMiHEVmjoYwZ0kQkk-30" value="" style="rounded=0;whiteSpace=wrap;html=1;" parent="1" vertex="1">
          <mxGeometry x="180" y="120" width="70" height="40" as="geometry" />
        </mxCell>
        <mxCell id="hg4rMiHEVmjoYwZ0kQkk-81" style="edgeStyle=orthogonalEdgeStyle;rounded=0;orthogonalLoop=1;jettySize=auto;html=1;exitX=0.5;exitY=1;exitDx=0;exitDy=0;fontSize=20;" parent="1" source="hg4rMiHEVmjoYwZ0kQkk-31" target="hg4rMiHEVmjoYwZ0kQkk-57" edge="1">
          <mxGeometry relative="1" as="geometry" />
        </mxCell>
        <mxCell id="hg4rMiHEVmjoYwZ0kQkk-31" value="" style="rounded=0;whiteSpace=wrap;html=1;" parent="1" vertex="1">
          <mxGeometry x="250" y="120" width="70" height="40" as="geometry" />
        </mxCell>
        <mxCell id="hg4rMiHEVmjoYwZ0kQkk-32" value="" style="rounded=0;whiteSpace=wrap;html=1;" parent="1" vertex="1">
          <mxGeometry x="320" y="120" width="70" height="40" as="geometry" />
        </mxCell>
        <mxCell id="hg4rMiHEVmjoYwZ0kQkk-33" value="" style="rounded=0;whiteSpace=wrap;html=1;" parent="1" vertex="1">
          <mxGeometry x="390" y="120" width="70" height="40" as="geometry" />
        </mxCell>
        <mxCell id="hg4rMiHEVmjoYwZ0kQkk-43" value="" style="edgeStyle=orthogonalEdgeStyle;rounded=0;orthogonalLoop=1;jettySize=auto;html=1;fontSize=20;" parent="1" source="hg4rMiHEVmjoYwZ0kQkk-34" target="hg4rMiHEVmjoYwZ0kQkk-42" edge="1">
          <mxGeometry relative="1" as="geometry" />
        </mxCell>
        <mxCell id="hg4rMiHEVmjoYwZ0kQkk-34" value="" style="rounded=0;whiteSpace=wrap;html=1;" parent="1" vertex="1">
          <mxGeometry x="115" y="190" width="60" height="40" as="geometry" />
        </mxCell>
        <mxCell id="hg4rMiHEVmjoYwZ0kQkk-40" value="Component Types" style="text;html=1;resizable=0;autosize=1;align=center;verticalAlign=middle;points=[];fillColor=none;strokeColor=none;rounded=0;fontSize=20;" parent="1" vertex="1">
          <mxGeometry x="50" y="70" width="180" height="30" as="geometry" />
        </mxCell>
        <mxCell id="hg4rMiHEVmjoYwZ0kQkk-45" value="" style="edgeStyle=orthogonalEdgeStyle;rounded=0;orthogonalLoop=1;jettySize=auto;html=1;fontSize=20;" parent="1" source="hg4rMiHEVmjoYwZ0kQkk-42" target="hg4rMiHEVmjoYwZ0kQkk-44" edge="1">
          <mxGeometry relative="1" as="geometry" />
        </mxCell>
        <mxCell id="hg4rMiHEVmjoYwZ0kQkk-42" value="" style="rounded=0;whiteSpace=wrap;html=1;" parent="1" vertex="1">
          <mxGeometry x="115" y="250" width="60" height="40" as="geometry" />
        </mxCell>
        <mxCell id="hg4rMiHEVmjoYwZ0kQkk-47" value="" style="edgeStyle=orthogonalEdgeStyle;rounded=0;orthogonalLoop=1;jettySize=auto;html=1;fontSize=20;" parent="1" source="hg4rMiHEVmjoYwZ0kQkk-44" target="hg4rMiHEVmjoYwZ0kQkk-46" edge="1">
          <mxGeometry relative="1" as="geometry" />
        </mxCell>
        <mxCell id="hg4rMiHEVmjoYwZ0kQkk-44" value="" style="rounded=0;whiteSpace=wrap;html=1;" parent="1" vertex="1">
          <mxGeometry x="115" y="310" width="60" height="40" as="geometry" />
        </mxCell>
        <mxCell id="hg4rMiHEVmjoYwZ0kQkk-46" value="" style="rounded=0;whiteSpace=wrap;html=1;" parent="1" vertex="1">
          <mxGeometry x="115" y="370" width="60" height="40" as="geometry" />
        </mxCell>
        <mxCell id="hg4rMiHEVmjoYwZ0kQkk-48" value="" style="edgeStyle=orthogonalEdgeStyle;rounded=0;orthogonalLoop=1;jettySize=auto;html=1;fontSize=20;" parent="1" source="hg4rMiHEVmjoYwZ0kQkk-49" target="hg4rMiHEVmjoYwZ0kQkk-51" edge="1">
          <mxGeometry relative="1" as="geometry" />
        </mxCell>
        <mxCell id="hg4rMiHEVmjoYwZ0kQkk-49" value="" style="rounded=0;whiteSpace=wrap;html=1;" parent="1" vertex="1">
          <mxGeometry x="185" y="190" width="60" height="40" as="geometry" />
        </mxCell>
        <mxCell id="hg4rMiHEVmjoYwZ0kQkk-51" value="" style="rounded=0;whiteSpace=wrap;html=1;" parent="1" vertex="1">
          <mxGeometry x="185" y="250" width="60" height="40" as="geometry" />
        </mxCell>
        <mxCell id="hg4rMiHEVmjoYwZ0kQkk-56" value="" style="edgeStyle=orthogonalEdgeStyle;rounded=0;orthogonalLoop=1;jettySize=auto;html=1;fontSize=20;" parent="1" source="hg4rMiHEVmjoYwZ0kQkk-57" target="hg4rMiHEVmjoYwZ0kQkk-59" edge="1">
          <mxGeometry relative="1" as="geometry" />
        </mxCell>
        <mxCell id="hg4rMiHEVmjoYwZ0kQkk-57" value="" style="rounded=0;whiteSpace=wrap;html=1;" parent="1" vertex="1">
          <mxGeometry x="255" y="190" width="60" height="40" as="geometry" />
        </mxCell>
        <mxCell id="hg4rMiHEVmjoYwZ0kQkk-58" value="" style="edgeStyle=orthogonalEdgeStyle;rounded=0;orthogonalLoop=1;jettySize=auto;html=1;fontSize=20;" parent="1" source="hg4rMiHEVmjoYwZ0kQkk-59" target="hg4rMiHEVmjoYwZ0kQkk-61" edge="1">
          <mxGeometry relative="1" as="geometry" />
        </mxCell>
        <mxCell id="hg4rMiHEVmjoYwZ0kQkk-59" value="" style="rounded=0;whiteSpace=wrap;html=1;" parent="1" vertex="1">
          <mxGeometry x="255" y="250" width="60" height="40" as="geometry" />
        </mxCell>
        <mxCell id="hg4rMiHEVmjoYwZ0kQkk-61" value="" style="rounded=0;whiteSpace=wrap;html=1;" parent="1" vertex="1">
          <mxGeometry x="255" y="310" width="60" height="40" as="geometry" />
        </mxCell>
        <mxCell id="hg4rMiHEVmjoYwZ0kQkk-73" style="edgeStyle=orthogonalEdgeStyle;rounded=0;orthogonalLoop=1;jettySize=auto;html=1;exitX=0.5;exitY=1;exitDx=0;exitDy=0;entryX=0.5;entryY=0;entryDx=0;entryDy=0;fontSize=20;" parent="1" target="hg4rMiHEVmjoYwZ0kQkk-75" edge="1">
          <mxGeometry relative="1" as="geometry">
            <mxPoint x="355" y="160" as="sourcePoint" />
          </mxGeometry>
        </mxCell>
        <mxCell id="hg4rMiHEVmjoYwZ0kQkk-74" value="" style="edgeStyle=orthogonalEdgeStyle;rounded=0;orthogonalLoop=1;jettySize=auto;html=1;fontSize=20;" parent="1" source="hg4rMiHEVmjoYwZ0kQkk-75" target="hg4rMiHEVmjoYwZ0kQkk-77" edge="1">
          <mxGeometry relative="1" as="geometry" />
        </mxCell>
        <mxCell id="hg4rMiHEVmjoYwZ0kQkk-75" value="" style="rounded=0;whiteSpace=wrap;html=1;" parent="1" vertex="1">
          <mxGeometry x="325" y="190" width="60" height="40" as="geometry" />
        </mxCell>
        <mxCell id="hg4rMiHEVmjoYwZ0kQkk-76" value="" style="edgeStyle=orthogonalEdgeStyle;rounded=0;orthogonalLoop=1;jettySize=auto;html=1;fontSize=20;" parent="1" source="hg4rMiHEVmjoYwZ0kQkk-77" target="hg4rMiHEVmjoYwZ0kQkk-79" edge="1">
          <mxGeometry relative="1" as="geometry" />
        </mxCell>
        <mxCell id="hg4rMiHEVmjoYwZ0kQkk-77" value="" style="rounded=0;whiteSpace=wrap;html=1;" parent="1" vertex="1">
          <mxGeometry x="325" y="250" width="60" height="40" as="geometry" />
        </mxCell>
        <mxCell id="hg4rMiHEVmjoYwZ0kQkk-78" value="" style="edgeStyle=orthogonalEdgeStyle;rounded=0;orthogonalLoop=1;jettySize=auto;html=1;fontSize=20;" parent="1" source="hg4rMiHEVmjoYwZ0kQkk-79" target="hg4rMiHEVmjoYwZ0kQkk-80" edge="1">
          <mxGeometry relative="1" as="geometry" />
        </mxCell>
        <mxCell id="hg4rMiHEVmjoYwZ0kQkk-79" value="" style="rounded=0;whiteSpace=wrap;html=1;" parent="1" vertex="1">
          <mxGeometry x="325" y="310" width="60" height="40" as="geometry" />
        </mxCell>
        <mxCell id="hg4rMiHEVmjoYwZ0kQkk-80" value="" style="rounded=0;whiteSpace=wrap;html=1;" parent="1" vertex="1">
          <mxGeometry x="325" y="370" width="60" height="40" as="geometry" />
        </mxCell>
        <mxCell id="hg4rMiHEVmjoYwZ0kQkk-82" value="" style="edgeStyle=orthogonalEdgeStyle;rounded=0;orthogonalLoop=1;jettySize=auto;html=1;fontSize=20;exitX=0.5;exitY=1;exitDx=0;exitDy=0;" parent="1" source="hg4rMiHEVmjoYwZ0kQkk-33" target="hg4rMiHEVmjoYwZ0kQkk-83" edge="1">
          <mxGeometry relative="1" as="geometry">
            <mxPoint x="420" y="160" as="sourcePoint" />
          </mxGeometry>
        </mxCell>
        <mxCell id="hg4rMiHEVmjoYwZ0kQkk-83" value="" style="rounded=0;whiteSpace=wrap;html=1;" parent="1" vertex="1">
          <mxGeometry x="395" y="190" width="60" height="40" as="geometry" />
        </mxCell>
        <mxCell id="hg4rMiHEVmjoYwZ0kQkk-86" value="" style="edgeStyle=orthogonalEdgeStyle;rounded=0;orthogonalLoop=1;jettySize=auto;html=1;fontSize=20;entryX=0.5;entryY=0;entryDx=0;entryDy=0;" parent="1" source="hg4rMiHEVmjoYwZ0kQkk-84" target="hg4rMiHEVmjoYwZ0kQkk-33" edge="1">
          <mxGeometry relative="1" as="geometry">
            <mxPoint x="530" y="160" as="targetPoint" />
          </mxGeometry>
        </mxCell>
        <mxCell id="hg4rMiHEVmjoYwZ0kQkk-84" value="physics components" style="text;html=1;resizable=0;autosize=1;align=center;verticalAlign=middle;points=[];fillColor=none;strokeColor=none;rounded=0;fontSize=20;" parent="1" vertex="1">
          <mxGeometry x="430" y="50" width="200" height="30" as="geometry" />
        </mxCell>
        <mxCell id="hg4rMiHEVmjoYwZ0kQkk-87" value="" style="edgeStyle=orthogonalEdgeStyle;rounded=0;orthogonalLoop=1;jettySize=auto;html=1;fontSize=20;" parent="1" source="hg4rMiHEVmjoYwZ0kQkk-88" target="hg4rMiHEVmjoYwZ0kQkk-31" edge="1">
          <mxGeometry relative="1" as="geometry">
            <mxPoint x="226.25" y="133.3599999999999" as="targetPoint" />
          </mxGeometry>
        </mxCell>
        <mxCell id="hg4rMiHEVmjoYwZ0kQkk-88" value="position components" style="text;html=1;resizable=0;autosize=1;align=center;verticalAlign=middle;points=[];fillColor=none;strokeColor=none;rounded=0;fontSize=20;" parent="1" vertex="1">
          <mxGeometry x="225" y="40" width="200" height="30" as="geometry" />
        </mxCell>
      </root>
    </mxGraphModel>
  </diagram>
  <diagram id="macGjN9iHivub9c09SrN" name="Page-2">
    <mxGraphModel dx="1326" dy="1006" grid="1" gridSize="10" guides="1" tooltips="1" connect="1" arrows="1" fold="1" page="1" pageScale="1" pageWidth="850" pageHeight="600" math="0" shadow="0">
      <root>
        <mxCell id="M-IE22q1ZYHwsOlyX31J-0" />
        <mxCell id="M-IE22q1ZYHwsOlyX31J-1" parent="M-IE22q1ZYHwsOlyX31J-0" />
        <mxCell id="M-IE22q1ZYHwsOlyX31J-10" value="" style="edgeStyle=orthogonalEdgeStyle;rounded=0;orthogonalLoop=1;jettySize=auto;html=1;fontSize=20;" edge="1" parent="M-IE22q1ZYHwsOlyX31J-1" source="M-IE22q1ZYHwsOlyX31J-2" target="M-IE22q1ZYHwsOlyX31J-9">
          <mxGeometry relative="1" as="geometry" />
        </mxCell>
        <mxCell id="M-IE22q1ZYHwsOlyX31J-2" value="" style="rounded=0;whiteSpace=wrap;html=1;fontSize=20;" vertex="1" parent="M-IE22q1ZYHwsOlyX31J-1">
          <mxGeometry x="210" y="100" width="80" height="40" as="geometry" />
        </mxCell>
        <mxCell id="M-IE22q1ZYHwsOlyX31J-3" value="Entity&#39;s by Archetype" style="text;html=1;resizable=0;autosize=1;align=center;verticalAlign=middle;points=[];fillColor=none;strokeColor=none;rounded=0;fontSize=20;" vertex="1" parent="M-IE22q1ZYHwsOlyX31J-1">
          <mxGeometry x="160" y="40" width="200" height="30" as="geometry" />
        </mxCell>
        <mxCell id="M-IE22q1ZYHwsOlyX31J-6" value="" style="rounded=0;whiteSpace=wrap;html=1;fontSize=20;" vertex="1" parent="M-IE22q1ZYHwsOlyX31J-1">
          <mxGeometry x="210" y="140" width="80" height="40" as="geometry" />
        </mxCell>
        <mxCell id="M-IE22q1ZYHwsOlyX31J-7" value="" style="rounded=0;whiteSpace=wrap;html=1;fontSize=20;" vertex="1" parent="M-IE22q1ZYHwsOlyX31J-1">
          <mxGeometry x="210" y="180" width="80" height="40" as="geometry" />
        </mxCell>
        <mxCell id="M-IE22q1ZYHwsOlyX31J-8" value="" style="rounded=0;whiteSpace=wrap;html=1;fontSize=20;" vertex="1" parent="M-IE22q1ZYHwsOlyX31J-1">
          <mxGeometry x="210" y="220" width="80" height="40" as="geometry" />
        </mxCell>
        <mxCell id="M-IE22q1ZYHwsOlyX31J-9" value="" style="rounded=0;whiteSpace=wrap;html=1;fontSize=20;" vertex="1" parent="M-IE22q1ZYHwsOlyX31J-1">
          <mxGeometry x="320" y="105" width="60" height="30" as="geometry" />
        </mxCell>
        <mxCell id="M-IE22q1ZYHwsOlyX31J-15" value="Player archetype" style="text;html=1;resizable=0;autosize=1;align=center;verticalAlign=middle;points=[];fillColor=none;strokeColor=none;rounded=0;fontSize=20;" vertex="1" parent="M-IE22q1ZYHwsOlyX31J-1">
          <mxGeometry x="30" y="105" width="170" height="30" as="geometry" />
        </mxCell>
        <mxCell id="M-IE22q1ZYHwsOlyX31J-16" value="Enemy archetype" style="text;html=1;resizable=0;autosize=1;align=center;verticalAlign=middle;points=[];fillColor=none;strokeColor=none;rounded=0;fontSize=20;" vertex="1" parent="M-IE22q1ZYHwsOlyX31J-1">
          <mxGeometry x="30" y="145" width="170" height="30" as="geometry" />
        </mxCell>
        <mxCell id="M-IE22q1ZYHwsOlyX31J-20" value="Player entity" style="text;html=1;resizable=0;autosize=1;align=center;verticalAlign=middle;points=[];fillColor=none;strokeColor=none;rounded=0;fontSize=20;" vertex="1" parent="M-IE22q1ZYHwsOlyX31J-1">
          <mxGeometry x="440" y="40" width="130" height="30" as="geometry" />
        </mxCell>
        <mxCell id="M-IE22q1ZYHwsOlyX31J-21" value="" style="endArrow=classic;html=1;fontSize=20;" edge="1" parent="M-IE22q1ZYHwsOlyX31J-1" source="M-IE22q1ZYHwsOlyX31J-20">
          <mxGeometry width="50" height="50" relative="1" as="geometry">
            <mxPoint x="340" y="410" as="sourcePoint" />
            <mxPoint x="390" y="110" as="targetPoint" />
          </mxGeometry>
        </mxCell>
      </root>
    </mxGraphModel>
  </diagram>
</mxfile>
